Patient4_TMGait_0pt3_01_right_07_GRF.mot
version=1
nRows=71
nColumns=19
inDegrees=no
endheader
time	F1x	F1y	F1z	M1x	M1y	M1z	F2x	F2y	F2z	M2x	M2y	M2z	EC1x	EC1y	EC1z	EC2x	EC2y	EC2z
11.65	-8.5648	768.315	53.5866	-296.4631	-58.052	841.7889	-2.3287	50.2165	-6.6897	15.9172	8.681	37.4149	-0.0592	0.0182	-0.0073	-0.0462	0.0165	0.9585
11.6692	-7.7205	790.9447	56.7443	-304.8221	-60.7078	863.6223	-2.3668	41.7539	-5.5152	13.1927	7.0871	32.2418	-0.0592	0.0182	-0.0073	-0.0462	0.0165	0.9585
11.6884	-6.8478	814.0502	60.2833	-313.2976	-63.6907	885.3764	-2.3831	32.5149	-4.246	10.2462	5.4754	26.0769	-0.0592	0.0182	-0.0073	-0.0462	0.0165	0.9585
11.7076	-5.9231	834.4418	63.8818	-320.6877	-66.6682	903.7529	-2.2238	23.5489	-3.0026	7.4072	3.9399	19.7269	-0.0592	0.0182	-0.0073	-0.0462	0.0165	0.9585
11.7269	-4.8655	849.0272	67.1959	-325.8399	-69.2647	915.5842	-1.8747	15.8176	-1.9103	4.9713	2.5916	14.0271	-0.0592	0.0182	-0.0073	-0.0462	0.0165	0.9585
11.7461	-3.577	855.4467	69.9184	-327.8881	-71.1394	918.4901	-1.4638	9.8222	-1.0569	3.0889	1.5339	9.4708	-0.0592	0.0182	-0.0073	-0.0462	0.0165	0.9585
11.7653	-1.9836	852.5567	71.8216	-326.4288	-72.0442	911.3752	-1.0784	5.568	-0.45328	1.7566	0.78323	6.1327	-0.0592	0.0182	-0.0073	-0.0462	0.0165	0.9585
11.7845	-0.050699	840.6313	72.7735	-321.5934	-71.8435	894.6356	-0.75995	2.7665	-0.068291	0.88023	0.30145	3.8152	-0.0592	0.0182	-0.0073	-0.0462	0.0165	0.9585
11.8037	2.2027	821.2864	72.7411	-314.0139	-70.5205	870.0674	-0.51742	0.99574	0.14652	0.3241	0.026057	2.1967	-0.0592	0.0182	-0.0073	-0.0462	0.0165	0.9585
11.8229	4.7074	797.1573	71.8005	-304.6972	-68.184	840.5124	-0.34074	-0.19578	0.24443	-0.055819	-0.11323	0.91755	-0.0592	0.0182	-0.0073	-0.0462	0.0165	0.9585
11.8421	7.3714	771.3808	70.1308	-294.83	-65.0553	809.2919	-0.20728	-1.2246	0.2792	-0.39126	-0.18549	-0.37257	-0.0592	0.0182	-0.0073	-0.0462	0.0165	0.9585
11.8614	10.1112	747.0318	67.9856	-285.5696	-61.4273	779.6081	-0.086655	-2.4243	0.29808	-0.78679	-0.25168	-1.9642	-0.0592	0.0182	-0.0073	-0.0462	0.0165	0.9585
11.8806	12.8908	726.6848	65.6434	-277.8828	-57.5945	754.0948	0.052785	-4.0017	0.33793	-1.3068	-0.36021	-4.029	-0.0592	0.0182	-0.0073	-0.0462	0.0165	0.9585
11.8998	15.7516	712.1252	63.368	-272.4361	-53.8051	734.5238	0.23489	-5.9906	0.42217	-1.9586	-0.54196	-6.5655	-0.0592	0.0182	-0.0073	-0.0462	0.0165	0.9585
11.919	18.7916	704.1636	61.3889	-269.5228	-50.2468	721.641	0.47419	-8.1931	0.56081	-2.6738	-0.80714	-9.3258	-0.0592	0.0182	-0.0073	-0.0462	0.0165	0.9585
11.9382	22.1239	702.5688	59.8957	-269.0318	-47.0583	715.1339	0.7692	-10.1054	0.74655	-3.2835	-1.139	-11.7193	-0.0592	0.0182	-0.0073	-0.0462	0.0165	0.9585
11.9574	25.8504	706.1505	59.0293	-270.4785	-44.3336	713.742	1.0895	-10.8411	0.94754	-3.4936	-1.4841	-12.7179	-0.0592	0.0182	-0.0073	-0.0462	0.0165	0.9585
11.9766	30.0288	712.979	58.8432	-273.0898	-42.099	715.5035	1.3668	-9.0674	1.1016	-2.865	-1.7393	-10.7761	-0.0592	0.0182	-0.0073	-0.0462	0.0165	0.9585
11.9959	34.6246	720.6255	59.2713	-275.9068	-40.3065	718.0207	1.4798	-2.9837	1.111	-0.80826	-1.7404	-3.7992	-0.0592	0.0182	-0.0073	-0.0462	0.0165	0.9585
12.0151	39.4832	726.3933	60.1399	-277.8828	-38.857	718.7061	1.2461	9.6002	0.83443	3.3903	-1.2511	10.7645	-0.0592	0.0182	-0.0073	-0.0462	0.0165	0.9585
12.0343	44.3273	727.5758	61.1931	-277.9903	-37.6263	715.0444	0.41972	31.021	0.086237	10.4891	0.036069	35.6538	-0.0592	0.0182	-0.0073	-0.0462	0.0165	0.9585
12.0535	48.7741	721.7012	62.1034	-275.3214	-36.4713	704.8226	-1.2974	63.2809	-1.3534	21.1305	2.4811	73.2412	-0.0592	0.0182	-0.0073	-0.0462	0.0165	0.9585
12.0727	52.3619	706.6498	62.4591	-269.1318	-35.2078	686.2102	-4.2549	107.2816	-3.7077	35.587	6.4571	124.6325	-0.0592	0.0182	-0.0073	-0.0462	0.0165	0.9585
12.0919	54.5975	680.7073	61.7907	-258.8413	-33.608	657.7639	-8.9438	161.826	-7.1153	53.4344	12.2757	188.4883	-0.0592	0.0182	-0.0073	-0.0462	0.0165	0.9585
12.1111	55.0821	642.8552	59.7235	-244.1171	-31.4874	618.6597	-15.5394	222.845	-11.5789	73.294	19.97	260.1018	-0.0592	0.0182	-0.0073	-0.0462	0.0165	0.9585
12.1304	53.651	593.2949	56.1419	-225.0535	-28.8035	569.1477	-23.2792	284.8233	-16.9526	93.311	29.07	332.9565	-0.0592	0.0182	-0.0073	-0.0462	0.0165	0.9585
12.1496	50.4096	533.7439	51.2455	-202.2887	-25.6905	510.8268	-31.0216	344.2179	-22.7898	112.3159	38.6589	402.7097	-0.0592	0.0182	-0.0073	-0.0462	0.0165	0.9585
12.1688	45.6548	467.1512	45.4341	-176.917	-22.3842	446.4029	-37.8056	399.83	-28.6073	129.9432	47.8544	467.7461	-0.0592	0.0182	-0.0073	-0.0462	0.0165	0.9585
12.188	39.7554	397.0815	39.1193	-150.2713	-19.0989	379.1403	-43.0496	451.5173	-34.0756	146.1772	56.0815	527.7342	-0.0592	0.0182	-0.0073	-0.0462	0.0165	0.9585
12.2072	33.1123	327.1611	32.6549	-123.7138	-15.9835	312.356	-46.5405	499.5731	-39.093	161.133	63.1495	582.912	-0.0592	0.0182	-0.0073	-0.0462	0.0165	0.9585
12.2264	26.1433	260.6779	26.3484	-98.4832	-13.1401	249.057	-48.3848	544.4154	-43.684	174.9646	69.1194	633.7294	-0.0592	0.0182	-0.0073	-0.0462	0.0165	0.9585
12.2456	19.2852	200.3245	20.4863	-75.5932	-10.6487	191.6951	-48.8986	586.2631	-47.8574	187.7802	74.1073	680.4602	-0.0592	0.0182	-0.0073	-0.0462	0.0165	0.9585
12.2649	12.973	148.0168	15.3244	-55.7655	-8.5651	141.997	-48.4515	625.0562	-51.4968	199.6278	78.117	723.0879	-0.0592	0.0182	-0.0073	-0.0462	0.0165	0.9585
12.2841	7.5469	104.7239	11.0273	-39.3676	-6.8975	100.8219	-47.3274	660.423	-54.3668	210.4824	80.9954	761.2484	-0.0592	0.0182	-0.0073	-0.0462	0.0165	0.9585
12.3033	3.1783	70.4374	7.6307	-26.3989	-5.6049	68.1394	-45.6825	691.714	-56.1809	220.2395	82.4886	794.2554	-0.0592	0.0182	-0.0073	-0.0462	0.0165	0.9585
12.3225	-0.093134	44.3881	5.062	-16.5678	-4.605	43.2296	-43.5555	718.1579	-56.7121	228.7361	82.3667	821.2795	-0.0592	0.0182	-0.0073	-0.0462	0.0165	0.9585
12.3417	-2.2924	25.3997	3.1843	-9.4241	-3.7864	25.0017	-40.901	738.972	-55.9014	235.758	80.5517	841.482	-0.0592	0.0182	-0.0073	-0.0462	0.0165	0.9585
12.3609	-3.4731	12.1862	1.8436	-4.4737	-3.0381	12.2575	-37.6267	753.4824	-53.8992	241.0662	77.1743	854.147	-0.0592	0.0182	-0.0073	-0.0462	0.0165	0.9585
12.3801	-3.7539	3.5406	0.90946	-1.2533	-2.2975	3.8642	-33.6681	761.329	-51.0206	244.4739	72.5522	858.9291	-0.0592	0.0182	-0.0073	-0.0462	0.0165	0.9585
12.3994	-3.4052	-1.57	0.29908	0.63456	-1.6028	-1.1484	-29.0789	762.7274	-47.6595	245.9547	67.1328	856.1664	-0.0592	0.0182	-0.0073	-0.0462	0.0165	0.9585
12.4186	-2.7547	-4.0716	-0.048775	1.5443	-1.0316	-3.6476	-24.0843	758.6555	-44.2227	245.725	61.4412	847.0833	-0.0592	0.0182	-0.0073	-0.0462	0.0165	0.9585
12.4378	-2.0284	-4.818	-0.20272	1.8001	-0.61049	-4.437	-19.041	750.9041	-41.0543	244.2806	55.9862	833.8104	-0.0592	0.0182	-0.0073	-0.0462	0.0165	0.9585
12.457	-1.3572	-4.5083	-0.22878	1.6687	-0.32874	-4.1859	-14.3518	741.8848	-38.399	242.3454	51.1885	819.1384	-0.0592	0.0182	-0.0073	-0.0462	0.0165	0.9585
12.4762	-0.80518	-3.6661	-0.18346	1.3484	-0.15906	-3.4057	-10.3931	734.2075	-36.4128	240.73	47.3638	806.0377	-0.0592	0.0182	-0.0073	-0.0462	0.0165	0.9585
12.4954	-0.39311	-2.6508	-0.11064	0.97139	-0.066669	-2.4494	-7.4547	730.2699	-35.1828	240.1921	44.7195	797.2066	-0.0592	0.0182	-0.0073	-0.0462	0.0165	0.9585
12.5146	-0.11008	-1.6788	-0.038585	0.61621	-0.020861	-1.5309	-5.6864	731.905	-34.7414	241.3126	43.3482	794.6954	-0.0592	0.0182	-0.0073	-0.0462	0.0165	0.9585
12.5339	0.066521	-0.85637	0.017691	0.32141	-0.0019575	-0.75899	-5.0875	740.0373	-35.0679	244.3786	43.2302	799.5471	-0.0592	0.0182	-0.0073	-0.0462	0.0165	0.9585
12.5531	0.16268	-0.2208	0.052337	0.098907	0.0043519	-0.17278	-5.5356	754.455	-36.0824	249.3083	44.2356	811.5564	-0.0592	0.0182	-0.0073	-0.0462	0.0165	0.9585
12.5723	0.20232	0.22661	0.066556	-0.055562	0.0078064	0.23325	-6.8269	773.8141	-37.6442	255.6578	46.1334	829.2741	-0.0592	0.0182	-0.0073	-0.0462	0.0165	0.9585
12.5915	0.20341	0.51085	0.066253	-0.15401	0.012089	0.48886	-8.6833	795.8979	-39.5561	262.7132	48.6021	850.2742	-0.0592	0.0182	-0.0073	-0.0462	0.0165	0.9585
12.6107	0.17887	0.66468	0.060022	-0.20901	0.012932	0.62616	-10.7763	818.0859	-41.573	269.6474	51.2512	871.6521	-0.0592	0.0182	-0.0073	-0.0462	0.0165	0.9585
12.6299	0.13632	0.71742	0.053812	-0.22937	0.0044554	0.67414	-12.7805	837.8425	-43.4356	275.6734	53.6793	890.5701	-0.0592	0.0182	-0.0073	-0.0462	0.0165	0.9585
12.6491	0.080167	0.68554	0.051798	-0.21924	-0.017744	0.64602	-14.4064	853.0676	-44.9074	280.1494	55.5222	904.6625	-0.0592	0.0182	-0.0073	-0.0462	0.0165	0.9585
12.6684	0.011043	0.57165	0.055472	-0.17636	-0.055169	0.53611	-15.417	862.3017	-45.807	282.6379	56.4965	912.2674	-0.0592	0.0182	-0.0073	-0.0462	0.0165	0.9585
12.6876	-0.069925	0.36254	0.064945	-0.092919	-0.10675	0.32537	-15.641	864.7658	-46.0439	282.9118	56.4409	912.4852	-0.0592	0.0182	-0.0073	-0.0462	0.0165	0.9585
12.7068	-0.16091	0.032526	0.078769	0.041286	-0.16824	-0.020754	-14.9957	860.3479	-45.632	280.946	55.3375	905.1667	-0.0592	0.0182	-0.0073	-0.0462	0.0165	0.9585
12.726	-0.25318	-0.44931	0.093326	0.23679	-0.22956	-0.54147	-13.4944	849.6098	-44.6731	276.9201	53.3009	890.9095	-0.0592	0.0182	-0.0073	-0.0462	0.0165	0.9585
12.7452	-0.32795	-1.1043	0.10335	0.50059	-0.27731	-1.2605	-11.2236	833.7714	-43.3197	271.2229	50.5332	871.0374	-0.0592	0.0182	-0.0073	-0.0462	0.0165	0.9585
12.7644	-0.35126	-1.9228	0.10164	0.82819	-0.29555	-2.1704	-8.3236	814.5962	-41.7434	264.4229	47.274	847.4586	-0.0592	0.0182	-0.0073	-0.0462	0.0165	0.9585
12.7836	-0.27775	-2.8377	0.078615	1.1928	-0.25802	-3.2072	-4.954	794.1733	-40.1156	257.2054	43.7681	822.4176	-0.0592	0.0182	-0.0073	-0.0462	0.0165	0.9585
12.8029	-0.055063	-3.6994	0.026261	1.5322	-0.13189	-4.2102	-1.26	774.6011	-38.5744	250.2712	40.2255	798.1589	-0.0592	0.0182	-0.0073	-0.0462	0.0165	0.9585
12.8221	0.37497	-4.2447	-0.065146	1.7368	0.1233	-4.8888	2.6373	757.6033	-37.2234	244.2019	36.8149	776.5256	-0.0592	0.0182	-0.0073	-0.0462	0.0165	0.9585
12.8413	1.0737	-4.0644	-0.20369	1.6371	0.54913	-4.7877	6.6412	744.2181	-36.1485	239.349	33.679	758.6323	-0.0592	0.0182	-0.0073	-0.0462	0.0165	0.9585
12.8605	2.0871	-2.5859	-0.39148	0.99745	1.1733	-3.2644	10.6876	734.6872	-35.4161	235.7888	30.923	744.7482	-0.0592	0.0182	-0.0073	-0.0462	0.0165	0.9585
12.8797	3.4156	0.91979	-0.61902	-0.47867	1.9889	0.50173	14.7279	728.5493	-35.0816	233.3512	28.6248	734.4185	-0.0592	0.0182	-0.0073	-0.0462	0.0165	0.9585
12.8989	4.9847	7.2741	-0.86122	-3.1225	2.9382	7.4478	18.6967	724.8154	-35.1779	231.6849	26.8355	726.6688	-0.0592	0.0182	-0.0073	-0.0462	0.0165	0.9585
12.9181	6.5995	17.2568	-1.0694	-7.2425	3.8835	18.4869	22.4838	722.1726	-35.6881	230.3339	25.5701	720.2191	-0.0592	0.0182	-0.0073	-0.0462	0.0165	0.9585
12.9374	7.8955	31.3858	-1.1596	-13.0327	4.5697	34.2618	25.9319	719.1732	-36.5357	228.8102	24.8012	713.6754	-0.0592	0.0182	-0.0073	-0.0462	0.0165	0.9585
12.9566	8.3836	49.6557	-0.98515	-20.4672	4.6161	54.853	28.8519	714.4001	-37.5905	226.6554	24.4593	705.6896	-0.0592	0.0182	-0.0073	-0.0462	0.0165	0.9585
12.9758	7.6912	71.3782	-0.34214	-29.2368	3.626	79.5846	31.0598	706.6283	-38.6821	223.4952	24.437	695.1045	-0.0592	0.0182	-0.0073	-0.0462	0.0165	0.9585
12.995	5.8391	95.3351	1.0059	-38.818	1.3285	107.1619	32.4341	695.0002	-39.6399	219.0895	24.6102	681.1071	-0.0592	0.0182	-0.0073	-0.0462	0.0165	0.9585
